# Blender 3.3.1
# www.blender.org
mtllib A rock.mtl
o Cube
v 0.367906 0.361948 -0.627926
v 1.007966 -1.007966 -1.007966
v 0.489005 0.481341 0.481341
v 1.000000 -1.000000 1.000000
v -0.546520 0.121891 -0.210556
v -1.000000 -1.000000 -1.000000
v -0.351844 -0.132918 0.422934
v -1.000000 -1.000000 1.000000
vn -0.4091 0.9010 0.1441
vn -0.1105 0.4255 0.8982
vn -0.8744 0.4725 0.1104
vn -0.0020 -1.0000 0.0020
vn 0.9270 0.3719 -0.0488
vn -0.1632 0.4091 -0.8978
vt 0.037743 0.451700
vt 0.504358 0.899751
vt 0.000000 0.658190
vt 0.489497 0.000000
vt 0.878074 0.994750
vt 0.347247 0.508808
vt 0.304560 0.508808
vt 0.489497 0.623158
vt 0.489497 0.484376
vt 0.987194 0.001976
vt 0.878074 0.497697
vt 0.149292 0.227532
vt 0.012537 0.901124
vt 0.000000 0.000000
vt 0.491475 0.497697
vt 0.347247 1.000000
vt 0.314314 0.256197
vt 0.489497 0.032031
vt 0.987194 0.497695
s 0
usemtl Material
f 1/1/1 5/12/1 7/17/1 3/7/1
f 4/9/2 3/7/2 7/17/2 8/18/2
f 8/18/3 7/17/3 5/12/3 6/14/3
f 6/15/4 2/4/4 4/10/4 8/19/4
f 2/5/5 1/2/5 3/8/5 4/11/5
f 6/16/6 5/13/6 1/3/6 2/6/6
