# Blender 3.4.1
# www.blender.org
mtllib cactuses_2.mtl
o Plane.002
v -0.468869 1.832392 -0.223094
v -0.326436 2.139889 -0.247569
v -0.575019 1.855939 -0.544992
v -0.432585 2.163437 -0.569467
v -0.547485 1.789025 -0.379654
v -0.378618 1.981918 -0.177608
v -0.353970 2.206803 -0.412907
v -0.522836 2.013910 -0.614952
v -0.450727 1.997914 -0.396280
v -1.059993 2.027123 -0.193232
v -0.951768 2.061556 -0.023482
v -0.795935 2.189938 0.007296
v -0.683184 2.327876 -0.092569
v -0.695083 2.388955 -0.287096
v -0.803308 2.354523 -0.456846
v -0.959141 2.226142 -0.487624
v -1.071892 2.088203 -0.387758
v -1.586964 3.253624 0.021871
v -1.462992 2.499015 -0.010790
v -1.308988 2.514771 0.197113
v -1.064783 2.599787 0.215166
v -0.875255 2.696933 0.067411
v -0.873707 2.746507 -0.187009
v -1.027711 2.730752 -0.394913
v -1.271916 2.645736 -0.412965
v -1.461444 2.548590 -0.265210
v -1.421121 3.527284 -0.009076
v -1.435953 3.251561 0.257916
v -1.157948 3.261887 0.291577
v -0.922178 3.276959 0.140873
v -0.888931 3.288131 -0.137149
v -1.039943 3.290193 -0.373194
v -1.317947 3.279868 -0.406855
v -1.553717 3.264796 -0.256151
v -1.346613 3.526266 0.107388
v -1.209446 3.531361 0.123996
v -1.093118 3.538797 0.049639
v -1.076714 3.544309 -0.087536
v -1.151223 3.545327 -0.203999
v -1.288389 3.540232 -0.220607
v -1.404717 3.532796 -0.146251
v -1.248918 3.535796 -0.048306
v 0.543879 2.350772 -0.409656
v 0.568736 2.411334 -0.650941
v 0.517733 2.620147 -0.761699
v 0.431212 2.840753 -0.706540
v 0.357033 2.934198 -0.485195
v 0.332175 2.873637 -0.243910
v 0.383178 2.664824 -0.133152
v 0.469700 2.444217 -0.188311
v 0.450456 2.642485 -0.447426
v 1.096997 2.683276 -0.331390
v 1.104095 2.731361 -0.606865
v 0.987734 2.910646 -0.738966
v 0.831179 3.103276 -0.683308
v 0.726202 3.188573 -0.435248
v 0.719105 3.140489 -0.159773
v 0.835466 2.961204 -0.027671
v 0.992021 2.768574 -0.083330
v 1.553172 3.342272 -0.314243
v 0.939784 3.687894 -0.451451
v 1.343104 3.482999 -0.834219
v 1.091861 3.618663 -0.765566
v 1.543334 3.364274 -0.664576
v 0.949621 3.665892 -0.101118
v 1.149852 3.547166 0.068525
v 1.401094 3.411504 -0.000128
v 1.468846 4.407620 -0.872648
v 1.175915 4.428668 -0.828233
v 1.193230 4.432731 0.088722
v 1.486161 4.411683 0.044307
v 1.679601 4.396081 -0.279915
v 1.689022 4.393201 -0.663291
v 0.982475 4.444270 -0.504011
v 0.973054 4.447150 -0.120635
v 1.522671 4.776825 -0.530775
v 1.414037 4.783940 -0.634071
v 1.169415 4.803444 -0.263032
v 1.278049 4.796329 -0.159736
v 1.518022 4.778247 -0.341620
v 1.269505 4.794324 -0.612158
v 1.174063 4.802023 -0.452188
v 1.422579 4.785945 -0.181650
v 1.346043 4.790135 -0.396904
v -0.536152 4.223834 -1.025664
v -0.625577 4.162933 0.111595
v 0.518977 4.086708 -1.006802
v 0.472573 4.066430 0.129513
v 0.554538 4.268488 -0.420033
v -0.021847 4.353279 -1.078714
v -0.093255 4.308868 0.220237
v -0.679375 4.382869 -0.437046
v -0.110811 4.786743 -0.360096
v 0.524831 4.195052 -0.070100
v 0.311739 4.244559 -1.055000
v -0.518047 3.776049 -1.115420
v 0.529539 3.583110 0.099647
v -0.619145 3.732885 0.067660
v 0.591359 3.583778 -1.083188
v -0.431814 4.268216 0.185346
v -0.621379 4.338153 -0.799304
v 0.549993 4.208622 -0.781494
v -0.345841 4.325523 -1.065246
v 0.256352 4.214350 0.194922
v -0.676223 4.297388 -0.087357
v 0.060465 3.750148 -1.266303
v -0.733953 3.837690 -0.530851
v -0.111315 4.649876 0.005844
v -0.084721 4.675482 -0.762682
v 0.267667 4.637926 -0.375529
v -0.464721 4.684103 -0.380987
v 0.712141 3.623010 -0.490191
v -0.052684 3.726894 0.242758
v -0.380533 3.719889 0.212750
v 0.676162 3.578230 -0.150860
v -0.425596 4.639536 -0.754823
v 0.267157 4.586756 -0.749010
v 0.247858 4.567344 -0.012984
v -0.679754 3.802485 -0.868234
v 0.368958 3.641471 -1.233359
v -0.260492 3.757740 -1.252515
v -0.740437 3.771934 -0.190395
v -0.460418 4.608183 -0.018455
v 0.709481 3.577423 -0.828714
v 0.279374 3.634322 0.231719
v -0.287616 2.915090 0.063293
v -0.004623 2.866145 0.113252
v -0.500727 2.917182 -0.067456
v 0.629316 2.703515 -0.251094
v 0.682925 2.683253 -0.542509
v 0.497534 2.713704 -0.030515
v -0.586630 2.912327 -0.871896
v -0.644612 2.946079 -0.587699
v -0.447120 2.845049 -1.085107
v 0.341087 2.717176 -1.190347
v 0.064974 2.775889 -1.243381
v 0.545490 2.652961 -1.053912
v -0.220551 2.828230 -1.208854
v -0.618070 2.953015 -0.295436
v 0.656751 2.670194 -0.831564
v 0.278586 2.796053 0.086104
v -0.240998 1.800617 0.104837
v 0.000045 1.768193 0.133966
v -0.427293 1.812084 -0.008332
v 0.548716 1.634111 -0.214715
v 0.586791 1.613173 -0.472354
v 0.432176 1.664854 -0.013650
v -0.526915 1.754635 -0.711842
v -0.563010 1.794915 -0.460928
v -0.410654 1.712593 -0.908771
v 0.268113 1.611181 -1.036965
v 0.026202 1.648273 -1.069588
v 0.453791 1.589118 -0.919505
v -0.218406 1.680332 -1.031024
v -0.536053 1.813008 -0.205867
v 0.561448 1.592746 -0.724518
v 0.241983 1.714237 0.102938
v -0.244380 0.409220 0.300844
v -0.031542 0.401402 0.337567
v -0.416774 0.410611 0.193530
v 0.459743 0.363912 -0.042757
v 0.504127 0.354943 -0.276175
v 0.351650 0.375236 0.149338
v -0.535796 0.383795 -0.445684
v -0.577310 0.396091 -0.212543
v -0.429327 0.372413 -0.637890
v 0.171556 0.350627 -0.792166
v -0.044038 0.355440 -0.828506
v 0.345910 0.348484 -0.683990
v -0.258353 0.363118 -0.766460
v -0.528184 0.405815 0.014818
v 0.457018 0.350050 -0.504587
v 0.180682 0.388541 0.276536
v -0.317075 -0.034458 0.516413
v -0.037311 -0.034613 0.516545
v -0.538561 -0.041348 0.375016
v 0.604167 -0.065241 0.081393
v 0.615467 -0.065462 -0.222509
v 0.462117 -0.062880 0.325000
v -0.695446 -0.059277 -0.454065
v -0.704446 -0.044881 -0.153363
v -0.555510 -0.072344 -0.696630
v 0.229476 -0.076012 -0.892111
v -0.054385 -0.068955 -0.894409
v 0.452956 -0.081627 -0.748781
v -0.336422 -0.071596 -0.862591
v -0.685133 -0.040946 0.146761
v 0.599557 -0.074684 -0.520922
v 0.243184 -0.047804 0.488506
vn -0.8524 0.4197 0.3118
vn -0.6822 -0.4938 0.5393
vn 0.7762 0.6161 0.1339
vn -0.8995 -0.4285 -0.0849
vn -0.6306 -0.0066 -0.7761
vn -0.3218 -0.8628 0.3899
vn 0.2740 0.8883 -0.3687
vn 0.1035 -0.3474 0.9320
vn -0.1838 0.4081 -0.8942
vn 0.3992 0.2788 0.8735
vn -0.4835 -0.2172 -0.8480
vn -0.5272 -0.8172 -0.2329
vn 0.4772 0.8432 0.2476
vn 0.9865 0.1427 0.0808
vn -0.9964 -0.0475 -0.0705
vn -0.5799 0.0328 -0.8140
vn 0.5651 0.0486 0.8236
vn 0.5633 0.6722 -0.4805
vn -0.0220 -0.1836 0.9828
vn -0.0944 0.3869 -0.9173
vn 0.5098 0.2205 0.8316
vn -0.4307 -0.5345 -0.7272
vn 0.4754 -0.5469 0.6891
vn 0.1221 -0.5072 -0.8531
vn -0.0774 -0.5742 0.8150
vn -0.8220 -0.0573 0.5665
vn 0.8095 0.1714 -0.5615
vn -0.0935 -0.0278 0.9952
vn 0.0781 0.1095 -0.9909
vn 0.0414 -0.9985 -0.0352
vn 0.0413 -0.9985 -0.0352
vn -0.8116 -0.5717 -0.1200
vn 0.8564 -0.5097 0.0819
vn -0.6849 -0.5859 0.4331
vn 0.7297 -0.4955 -0.4712
vn -0.9306 -0.3209 -0.1764
vn -0.9172 0.3955 0.0483
vn 0.7182 -0.5135 0.4696
vn -0.8178 0.3370 -0.4666
vn -0.2870 0.0062 -0.9579
vn -0.5784 0.8047 0.1334
vn 0.5207 -0.8414 -0.1447
vn -0.4206 0.3440 0.8395
vn 0.3046 -0.4074 -0.8610
vn -0.0315 -0.2762 0.9606
vn -0.0834 0.2121 -0.9737
vn -0.4632 0.7549 -0.4643
vn 0.4059 -0.7918 0.4564
vn 0.8682 -0.1080 0.4843
vn -0.8769 0.0357 -0.4794
vn -0.2120 -0.0313 -0.9768
vn 0.1903 -0.0466 0.9806
vn 0.8190 -0.5698 -0.0674
vn -0.5864 0.1774 0.7904
vn 0.4226 -0.3829 -0.8215
vn 0.1232 -0.2140 0.9690
vn -0.0908 0.5238 -0.8470
vn 0.1642 0.5301 0.8319
vn 0.6199 0.4825 -0.6187
vn -0.5544 0.5538 0.6212
vn -0.9991 0.0430 0.0017
vn 0.9916 -0.1295 -0.0039
vn -0.6647 0.0263 0.7466
vn 0.6475 -0.1043 -0.7549
vn 0.0708 0.9975 -0.0058
vn -0.7485 0.4688 -0.4691
vn 0.7925 0.4082 0.4532
vn -0.8797 0.4748 -0.0252
vn 0.9197 0.3920 0.0197
vn -0.6510 0.4251 0.6289
vn 0.1811 0.5163 0.8371
vn 0.3035 0.9346 -0.1856
vn -0.7999 0.5740 -0.1752
vn -0.0994 0.0358 0.9944
vn -0.4442 -0.0413 0.8950
vn 0.9666 0.2210 0.1300
vn 0.8941 0.1261 0.4297
vn -0.1876 0.9599 -0.2084
vn -0.0891 0.6886 -0.7196
vn -0.5667 0.5503 -0.6133
vn 0.7867 0.6096 -0.0975
vn 0.6503 0.5803 -0.4903
vn 0.2348 0.6843 -0.6904
vn 0.6397 0.4618 0.6144
vn 0.7954 0.5810 0.1727
vn 0.2996 0.9154 0.2690
vn -0.9769 0.1279 -0.1713
vn -0.8666 0.1139 -0.4858
vn 0.1857 0.3049 -0.9341
vn 0.5063 0.2495 -0.8255
vn -0.3919 0.2047 -0.8969
vn -0.0496 0.2981 -0.9533
vn -0.9357 0.0023 0.3529
vn -0.9941 0.1069 0.0186
vn -0.1343 0.5119 0.8485
vn -0.2103 0.9381 0.2751
vn -0.8232 0.5517 0.1336
vn 0.9141 0.2237 -0.3380
vn 0.9684 0.2448 -0.0469
vn 0.4027 0.0363 0.9146
vn 0.0681 0.0546 0.9962
vn 0.5459 -0.0543 -0.8361
vn -0.9836 -0.0803 -0.1618
vn 0.4288 -0.1520 0.8905
vn -0.1396 -0.1751 0.9746
vn 0.0191 -0.1593 0.9870
vn -0.5144 -0.2130 0.8307
vn -0.4769 -0.0633 -0.8767
vn -0.0830 -0.0368 -0.9959
vn 0.9890 -0.0531 0.1384
vn -0.9815 -0.0948 -0.1666
vn 0.8546 -0.1058 0.5084
vn -0.8416 -0.0836 -0.5336
vn 0.9003 -0.0545 -0.4319
vn -0.8924 -0.1915 0.4086
vn 0.9982 -0.0430 -0.0418
vn -0.9920 -0.1247 0.0199
vn 0.1353 -0.0361 -0.9901
vn -0.2253 -0.1761 -0.9582
vn 0.8809 -0.1283 -0.4557
vn -0.8563 -0.1101 -0.5046
vn 0.9915 -0.0957 -0.0885
vn 0.1342 -0.1502 -0.9795
vn 0.4928 -0.0098 0.8701
vn 0.5156 -0.1510 -0.8434
vn -0.1455 0.0245 0.9891
vn 0.1137 0.0154 0.9934
vn -0.5136 -0.1402 -0.8465
vn -0.5209 0.0105 0.8535
vn -0.1582 -0.1483 -0.9762
vn 0.9828 -0.0727 0.1696
vn -0.8838 -0.0303 0.4670
vn 0.8588 -0.0463 0.5103
vn -0.9931 -0.0615 0.0999
vn 0.5606 0.4257 0.7103
vn 0.9849 -0.0424 0.1680
vn -0.8613 0.0701 0.5033
vn 0.8686 0.0073 0.4955
vn -0.9877 0.0280 0.1541
vn -0.9875 -0.0207 -0.1561
vn 0.8527 -0.1639 -0.4960
vn -0.8697 -0.0874 -0.4858
vn 0.9849 -0.0975 -0.1433
vn 0.1289 -0.1935 -0.9726
vn 0.5668 0.0749 0.8204
vn 0.5103 -0.2022 -0.8359
vn -0.1296 0.1438 0.9811
vn 0.2151 0.1282 0.9681
vn -0.5734 -0.1497 -0.8055
vn -0.5168 0.1194 0.8477
vn -0.0142 -0.9996 0.0238
vn 0.5200 0.2568 -0.8146
vn -0.0613 0.4130 0.9087
vn 0.1831 0.4119 0.8926
vn -0.5765 0.2697 -0.7713
vn -0.4837 0.4404 0.7564
vn -0.1801 0.2002 -0.9631
vn 0.9479 0.3048 0.0930
vn -0.7727 0.4090 0.4854
vn 0.8033 0.3913 0.4489
vn -0.9389 0.3249 0.1134
vn -0.9477 0.3014 -0.1047
vn 0.8073 0.2848 -0.5168
vn -0.8222 0.3012 -0.4829
vn 0.9521 0.2806 -0.1214
vn 0.0803 0.1950 -0.9775
vt 0.854412 0.319142
vt 0.384557 0.882714
vt 0.625293 0.993658
vt 0.902763 0.336597
vt 0.666442 0.962868
vt 0.373976 0.891566
vt 0.837233 0.367814
vt 0.281796 0.720800
vt 0.333129 0.888025
vt 0.885584 0.385269
vt 0.322536 0.891566
vt 0.321901 0.753266
vt 0.837153 0.340347
vt 0.358309 0.882573
vt 0.881668 0.319142
vt 0.643732 0.977101
vt 0.902844 0.364063
vt 0.349149 0.888025
vt 0.858328 0.385269
vt 0.299036 0.739581
vt 0.869998 0.352205
vt 0.771941 0.769072
vt 0.350098 0.796137
vt 0.380100 0.799673
vt 0.574740 0.925210
vt 0.599955 0.916028
vt 0.857908 0.901631
vt 0.630003 0.909475
vt 0.380113 0.951705
vt 0.887425 0.892321
vt 0.351799 0.944467
vt 0.916318 0.901631
vt 0.321901 0.951705
vt 0.285613 0.802926
vt 0.255418 0.796367
vt 0.802051 0.776551
vt 0.321901 0.805683
vt 0.231588 0.784043
vt 0.760662 0.958071
vt 0.346252 0.720800
vt 0.756366 0.842963
vt 0.384557 0.728551
vt 0.722247 0.847109
vt 0.553973 0.833711
vt 0.586700 0.836071
vt 0.844564 0.858815
vt 0.625561 0.841769
vt 0.882280 0.850164
vt 0.918695 0.858815
vt 0.281373 0.868473
vt 0.242252 0.873623
vt 0.795146 0.848119
vt 0.211210 0.871456
vt 0.526090 0.895216
vt 0.764679 0.999159
vt 0.591689 0.726410
vt 0.722195 0.959776
vt 0.621455 0.739813
vt 0.839887 0.778012
vt 0.659465 0.759170
vt 0.466808 0.948749
vt 0.879562 0.773202
vt 0.499663 0.975687
vt 0.920130 0.778982
vt 0.318085 0.945073
vt 0.542301 0.975652
vt 0.279333 0.962843
vt 0.247640 0.974917
vt 0.802051 0.957134
vt 0.633001 0.702998
vt 0.505053 0.895234
vt 0.745700 1.000000
vt 0.647688 0.709610
vt 0.491645 0.911408
vt 0.666442 0.719161
vt 0.491595 0.932343
vt 0.507806 0.945634
vt 0.321901 0.985244
vt 0.528843 0.945616
vt 0.302780 0.994011
vt 0.542251 0.929442
vt 0.287143 0.999969
vt 0.542301 0.908508
vt 0.785101 0.998696
vt 0.516948 0.920425
vt 0.776022 0.389417
vt 0.429301 0.979078
vt 0.812292 0.383523
vt 0.393119 0.983285
vt 0.775171 0.389417
vt 0.836131 0.358645
vt 0.782546 0.419188
vt 0.837153 0.331276
vt 0.808309 0.445686
vt 0.809799 0.318433
vt 0.839887 0.451213
vt 0.773529 0.324328
vt 0.952297 0.723972
vt 0.749690 0.349205
vt 0.929652 0.748989
vt 0.748669 0.376575
vt 0.903867 0.773202
vt 0.465302 0.983285
vt 0.792911 0.353925
vt 0.425919 0.895217
vt 0.902831 0.000000
vt 0.385122 0.903127
vt 0.731525 0.459537
vt 0.944266 0.007474
vt 0.743397 0.482434
vt 0.966244 0.035132
vt 0.776077 0.501627
vt 0.798497 0.261618
vt 0.813077 0.504011
vt 0.757044 0.264218
vt 0.916531 0.661389
vt 0.886691 0.677956
vt 0.867257 0.013086
vt 0.466808 0.903127
vt 0.853297 0.693611
vt 0.891045 0.099168
vt 0.811458 0.585975
vt 0.808792 0.179765
vt 0.722195 0.583092
vt 0.973414 0.121432
vt 0.764281 0.589417
vt 0.944130 0.102761
vt 0.919793 0.574151
vt 0.756630 0.176517
vt 0.882095 0.576782
vt 0.722195 0.179585
vt 0.846394 0.109883
vt 0.839887 0.578258
vt 0.750376 0.722398
vt 0.975994 0.261878
vt 0.789674 0.710809
vt 0.935595 0.453116
vt 0.743653 0.051830
vt 0.895095 0.436144
vt 0.837153 0.261878
vt 0.882502 0.259230
vt 0.940239 0.259009
vt 0.839887 0.697533
vt 0.837153 0.071501
vt 0.781477 0.065237
vt 0.666442 0.718298
vt 0.922997 0.317726
vt 0.795208 0.769072
vt 0.940638 0.319142
vt 0.683372 0.702998
vt 0.719238 0.760408
vt 0.806595 0.006615
vt 0.952297 0.397792
vt 0.787933 0.000000
vt 0.702307 0.775708
vt 0.666442 0.747101
vt 0.894510 0.317835
vt 0.705301 0.706891
vt 0.814598 0.763354
vt 0.719238 0.731605
vt 0.839373 0.756804
vt 0.834065 0.009706
vt 0.932315 0.389418
vt 0.680378 0.771814
vt 0.872134 0.319142
vt 0.692840 0.739353
vt 0.523114 0.650708
vt 0.383667 0.072859
vt 0.702551 0.609080
vt 0.040745 0.080358
vt 0.211210 0.090962
vt 0.217371 0.091730
vt 0.131247 0.056795
vt 0.447463 0.893538
vt 0.454740 0.676699
vt 0.300911 0.053412
vt 0.621345 0.648558
vt 0.436571 0.782529
vt 0.211521 0.070970
vt 0.182978 0.070227
vt 0.500060 0.895216
vt 0.413605 0.664528
vt 0.030715 0.055364
vt 0.509341 0.582729
vt 0.211210 0.165206
vt 0.204339 0.164430
vt 0.385123 0.137950
vt 0.694109 0.548228
vt 0.027002 0.156543
vt 0.722195 0.631678
vt 0.352870 0.058091
vt 0.570721 0.651507
vt 0.553973 0.667715
vt 0.076190 0.063443
vt 0.496602 0.668417
vt 0.248652 0.068900
vt 0.672061 0.629862
vt 0.423241 0.585651
vt 0.602389 0.569275
vt 0.305000 0.000000
vt 0.444786 0.727356
vt 0.492150 0.725815
vt 0.436518 0.844109
vt 0.135219 0.000000
vt 0.496100 0.790894
vt 0.385123 0.780513
vt 0.640353 0.700669
vt 0.119027 0.154971
vt 0.296972 0.142192
vt 0.347097 0.141830
vt 0.169244 0.163954
vt 0.587230 0.702998
vt 0.386155 0.837811
vt 0.535603 0.716058
vt 0.078486 0.005257
vt 0.491316 0.847549
vt 0.251154 0.013747
vt 0.189059 0.013115
vt 0.500060 0.735817
vt 0.555283 0.572958
vt 0.550858 0.585505
vt 0.000590 0.146040
vt 0.386058 0.573198
vt 0.465055 0.582770
vt 0.651449 0.553156
vt 0.358422 0.004872
vt 0.392809 0.725815
vt 0.693044 0.683164
vt 0.067568 0.159608
vt 0.247177 0.157420
vt 0.338444 0.263471
vt 0.295097 0.272312
vt 0.372462 0.261444
vt 0.675097 0.438598
vt 0.147034 0.296120
vt 0.103916 0.297407
vt 0.221520 0.296340
vt 0.177928 0.295635
vt 0.553973 0.448999
vt 0.530986 0.451675
vt 0.593146 0.445927
vt 0.494783 0.442536
vt 0.385122 0.432809
vt 0.000000 0.286773
vt 0.416080 0.438029
vt 0.023956 0.298117
vt 0.455554 0.442453
vt 0.636979 0.442681
vt 0.059713 0.297357
vt 0.252823 0.283828
vt 0.335632 0.433357
vt 0.298847 0.439385
vt 0.680954 0.281603
vt 0.365312 0.430128
vt 0.143427 0.458701
vt 0.105111 0.460268
vt 0.171807 0.455008
vt 0.235724 0.455662
vt 0.573690 0.281920
vt 0.526800 0.277391
vt 0.608979 0.281404
vt 0.495130 0.271838
vt 0.397605 0.264657
vt 0.013933 0.455732
vt 0.425769 0.267100
vt 0.034974 0.460478
vt 0.460232 0.268982
vt 0.647461 0.280479
vt 0.066439 0.461590
vt 0.262810 0.448267
vt 0.339560 0.646240
vt 0.306845 0.648477
vt 0.367100 0.644636
vt 0.703355 0.076384
vt 0.158698 0.652699
vt 0.124240 0.652631
vt 0.251343 0.652555
vt 0.185745 0.651926
vt 0.604808 0.079034
vt 0.538368 0.070262
vt 0.637120 0.074571
vt 0.508602 0.069250
vt 0.040123 0.648731
vt 0.419424 0.073069
vt 0.443664 0.070939
vt 0.059693 0.650350
vt 0.476063 0.069586
vt 0.672465 0.073964
vt 0.088855 0.651681
vt 0.275531 0.650791
vt 0.059081 0.934875
vt 0.349656 0.714932
vt 0.101651 0.934875
vt 0.307244 0.715994
vt 0.025371 0.913340
vt 0.385123 0.714165
vt 0.722195 0.002345
vt 0.199276 0.868444
vt 0.177089 0.719253
vt 0.200913 0.822230
vt 0.131438 0.717272
vt 0.234174 0.720800
vt 0.177718 0.905514
vt 0.211210 0.720080
vt 0.001351 0.787152
vt 0.594358 0.008096
vt 0.553973 0.001010
vt 0.000000 0.832980
vt 0.637938 0.004153
vt 0.022635 0.750165
vt 0.515715 0.000000
vt 0.142043 0.720361
vt 0.023096 0.713111
vt 0.399942 0.008769
vt 0.098818 0.720081
vt 0.435704 0.006225
vt 0.176112 0.742101
vt 0.048865 0.715653
vt 0.055923 0.724919
vt 0.474028 0.002346
vt 0.003004 0.878644
vt 0.682592 0.000000
vt 0.198451 0.776789
vt 0.086042 0.716608
vt 0.144383 0.930499
vt 0.265148 0.718844
s 0
usemtl cactus2
f 9/21/1 7/17/1 4/10/1 8/19/1
f 5/13/1 9/21/1 8/19/1 3/7/1
f 1/1/1 6/15/1 9/21/1 5/13/1
f 6/15/1 2/4/1 7/17/1 9/21/1
f 14/30/2 23/48/2 24/49/2 15/32/2
f 17/36/3 26/52/3 19/41/3 10/22/3
f 13/27/4 22/46/4 23/48/4 14/30/4
f 12/26/5 21/45/5 22/47/5 13/28/5
f 7/18/6 14/31/6 15/33/6 4/11/6
f 5/14/7 10/23/7 11/24/7 1/2/7
f 4/12/8 15/34/8 16/35/8 8/20/8
f 1/3/9 11/25/9 12/26/9 6/16/9
f 8/20/10 16/35/10 17/38/10 3/8/10
f 6/16/11 12/26/11 13/28/11 2/5/11
f 2/6/12 13/29/12 14/31/12 7/18/12
f 3/9/13 17/37/13 10/23/13 5/14/13
f 26/52/14 34/69/14 18/39/14 19/41/14
f 22/46/15 30/59/15 31/62/15 23/48/15
f 21/45/16 29/58/16 30/60/16 22/47/16
f 25/51/17 33/67/17 34/68/17 26/53/17
f 10/23/18 19/40/18 20/42/18 11/24/18
f 15/34/19 24/50/19 25/51/19 16/35/19
f 11/25/20 20/44/20 21/45/20 12/26/20
f 16/35/21 25/51/21 26/53/21 17/38/21
f 29/58/22 36/73/22 37/75/22 30/60/22
f 33/67/23 40/80/23 41/82/23 34/68/23
f 28/56/24 35/70/24 36/73/24 29/58/24
f 32/65/25 39/78/25 40/80/25 33/67/25
f 23/48/26 31/62/26 32/64/26 24/49/26
f 19/41/27 18/39/27 28/57/27 20/43/27
f 24/50/28 32/65/28 33/67/28 25/51/28
f 20/44/29 28/56/29 29/58/29 21/45/29
f 42/85/30 40/81/30 39/79/30 38/77/30
f 27/54/31 41/83/31 40/81/31 42/85/31
f 35/71/31 27/54/31 42/85/31 36/74/31
f 36/74/31 42/85/31 38/77/31 37/76/31
f 30/61/32 37/76/32 38/77/32 31/63/32
f 34/69/33 41/84/33 27/55/33 18/39/33
f 31/63/34 38/77/34 39/79/34 32/66/34
f 18/39/35 27/55/35 35/72/35 28/57/35
f 51/104/36 49/99/36 48/97/36 47/95/36
f 43/86/36 50/101/36 49/99/36 51/104/36
f 44/88/36 43/86/36 51/104/36 45/91/36
f 45/91/36 51/104/36 47/95/36 46/93/36
f 56/113/37 57/115/37 65/129/37 61/123/37
f 59/118/38 52/106/38 60/121/38 67/132/38
f 55/112/39 56/114/39 61/122/39 63/126/39
f 54/110/40 55/112/40 63/126/40 62/124/40
f 47/95/41 48/97/41 57/115/41 56/113/41
f 43/87/42 44/89/42 53/107/42 52/105/42
f 48/98/43 49/100/43 58/117/43 57/116/43
f 44/90/44 45/92/44 54/110/44 53/108/44
f 49/100/45 50/102/45 59/120/45 58/117/45
f 45/92/46 46/94/46 55/112/46 54/110/46
f 46/94/47 47/96/47 56/114/47 55/112/47
f 50/103/48 43/87/48 52/105/48 59/119/48
f 67/132/49 60/121/49 72/141/49 71/140/49
f 63/126/50 61/122/50 74/143/50 69/136/50
f 62/124/51 63/126/51 69/136/51 68/134/51
f 66/130/52 67/133/52 71/139/52 70/137/52
f 52/106/53 53/109/53 64/127/53 60/121/53
f 57/116/54 58/117/54 66/130/54 65/128/54
f 53/109/55 54/111/55 62/125/55 64/127/55
f 58/117/56 59/120/56 67/133/56 66/130/56
f 68/134/57 69/136/57 81/159/57 77/148/57
f 70/137/58 71/139/58 83/163/58 79/153/58
f 73/142/59 68/135/59 77/149/59 76/147/59
f 75/145/60 70/138/60 79/154/60 78/152/60
f 61/123/61 65/129/61 75/145/61 74/144/61
f 60/121/62 64/127/62 73/142/62 72/141/62
f 65/129/63 66/131/63 70/138/63 75/145/63
f 64/127/64 62/125/64 68/135/64 73/142/64
f 84/166/65 82/160/65 78/151/65 79/155/65
f 80/156/65 84/166/65 79/155/65 83/164/65
f 76/146/65 77/150/65 84/166/65 80/156/65
f 77/150/65 81/158/65 82/160/65 84/166/65
f 69/136/66 74/143/66 82/161/66 81/159/66
f 71/140/67 72/141/67 80/157/67 83/165/67
f 74/144/68 75/145/68 78/152/68 82/162/68
f 72/141/69 73/142/69 76/147/69 80/157/69
f 123/228/70 105/197/70 86/169/70 100/190/70
f 118/217/71 108/200/71 91/176/71 104/196/71
f 117/216/72 109/203/72 93/178/72 110/205/72
f 116/212/73 101/192/73 92/177/73 111/207/73
f 100/191/74 114/210/74 113/209/74 91/176/74
f 86/168/75 98/187/75 114/210/75 100/191/75
f 94/180/76 115/211/76 112/208/76 89/173/76
f 88/171/77 97/186/77 115/211/77 94/180/77
f 109/203/78 116/213/78 111/206/78 93/178/78
f 90/175/79 103/195/79 116/214/79 109/202/79
f 103/195/80 85/167/80 101/193/80 116/214/80
f 102/194/81 117/215/81 110/204/81 89/173/81
f 87/170/82 95/183/82 117/215/82 102/194/82
f 95/181/83 90/174/83 109/203/83 117/216/83
f 94/179/84 118/217/84 104/196/84 88/172/84
f 89/173/85 110/204/85 118/218/85 94/180/85
f 110/205/86 93/178/86 108/201/86 118/219/86
f 101/192/87 119/220/87 107/199/87 92/177/87
f 85/167/88 96/184/88 119/221/88 101/193/88
f 95/182/89 120/223/89 106/198/89 90/175/89
f 87/170/90 99/189/90 120/222/90 95/183/90
f 103/195/91 121/224/91 96/184/91 85/167/91
f 90/175/92 106/198/92 121/224/92 103/195/92
f 105/197/93 122/225/93 98/188/93 86/169/93
f 92/177/94 107/199/94 122/225/94 105/197/94
f 108/200/95 123/226/95 100/191/95 91/176/95
f 93/178/96 111/206/96 123/227/96 108/201/96
f 111/207/97 92/177/97 105/197/97 123/228/97
f 102/194/98 124/229/98 99/189/98 87/170/98
f 89/173/99 112/208/99 124/229/99 102/194/99
f 104/196/100 125/230/100 97/185/100 88/172/100
f 91/176/101 113/209/101 125/230/101 104/196/101
f 120/222/102 99/189/102 137/246/102 135/244/102
f 133/241/103 132/239/103 148/259/103 149/261/103
f 97/185/104 125/230/104 141/250/104 131/237/104
f 113/209/105 114/210/105 126/231/105 127/232/105
f 125/230/106 113/209/106 127/232/106 141/250/106
f 114/210/107 98/187/107 128/233/107 126/231/107
f 96/184/108 121/224/108 138/247/108 134/242/108
f 121/224/109 106/198/109 136/245/109 138/247/109
f 112/208/110 115/211/110 129/235/110 130/236/110
f 107/199/111 119/220/111 132/239/111 133/241/111
f 115/211/112 97/186/112 131/238/112 129/235/112
f 119/221/113 96/184/113 134/242/113 132/240/113
f 99/189/114 124/229/114 140/249/114 137/246/114
f 98/188/115 122/225/115 139/248/115 128/234/115
f 124/229/116 112/208/116 130/236/116 140/249/116
f 122/225/117 107/199/117 133/241/117 139/248/117
f 106/198/118 120/223/118 135/243/118 136/245/118
f 154/267/119 152/265/119 168/285/119 170/287/119
f 137/246/120 140/249/120 156/269/120 153/266/120
f 132/240/121 134/242/121 150/262/121 148/260/121
f 140/249/122 130/236/122 146/256/122 156/269/122
f 136/245/123 135/243/123 151/263/123 152/265/123
f 131/237/124 141/250/124 157/270/124 147/258/124
f 135/244/125 137/246/125 153/266/125 151/264/125
f 127/232/126 126/231/126 142/251/126 143/252/126
f 141/250/127 127/232/127 143/252/127 157/270/127
f 134/242/128 138/247/128 154/267/128 150/262/128
f 126/231/129 128/233/129 144/254/129 142/251/129
f 138/247/130 136/245/130 152/265/130 154/267/130
f 130/236/131 129/235/131 145/255/131 146/256/131
f 128/234/132 139/248/132 155/268/132 144/253/132
f 129/235/133 131/238/133 147/257/133 145/255/133
f 139/248/134 133/241/134 149/261/134 155/268/134
f 163/277/135 173/290/135 189/326/135 179/302/135
f 146/256/136 145/255/136 161/275/136 162/276/136
f 144/253/137 155/268/137 171/288/137 160/274/137
f 145/255/138 147/257/138 163/278/138 161/275/138
f 155/268/139 149/261/139 165/281/139 171/288/139
f 149/261/140 148/259/140 164/279/140 165/281/140
f 153/266/141 156/269/141 172/289/141 169/286/141
f 148/260/142 150/262/142 166/282/142 164/280/142
f 156/269/143 146/256/143 162/276/143 172/289/143
f 152/265/144 151/263/144 167/284/144 168/285/144
f 147/258/145 157/270/145 173/290/145 163/277/145
f 151/264/146 153/266/146 169/286/146 167/283/146
f 143/252/147 142/251/147 158/271/147 159/272/147
f 157/270/148 143/252/148 159/272/148 173/290/148
f 150/262/149 154/267/149 170/287/149 166/282/149
f 142/251/150 144/254/150 160/273/150 158/271/150
f 177/298/151 179/303/151 189/325/151 175/293/151 174/291/151 176/295/151 187/321/151 181/308/151 180/305/151 182/310/151 186/319/151 184/315/151 183/312/151 185/317/151 188/323/151 178/300/151
f 167/283/152 169/286/152 185/318/152 183/313/152
f 159/272/153 158/271/153 174/292/153 175/294/153
f 173/290/154 159/272/154 175/294/154 189/326/154
f 166/282/155 170/287/155 186/320/155 182/311/155
f 158/271/156 160/273/156 176/296/156 174/292/156
f 170/287/157 168/285/157 184/316/157 186/320/157
f 162/276/158 161/275/158 177/299/158 178/301/158
f 160/274/159 171/288/159 187/322/159 176/297/159
f 161/275/160 163/278/160 179/304/160 177/299/160
f 171/288/161 165/281/161 181/309/161 187/322/161
f 165/281/162 164/279/162 180/306/162 181/309/162
f 169/286/163 172/289/163 188/324/163 185/318/163
f 164/280/164 166/282/164 182/311/164 180/307/164
f 172/289/165 162/276/165 178/301/165 188/324/165
f 168/285/166 167/284/166 183/314/166 184/316/166
