# Blender 3.4.1
# www.blender.org
mtllib cactuses_1.mtl
o Plane.003
v -0.201691 0.515286 0.031255
v -0.051292 0.811419 -0.084771
v -0.420051 0.518110 -0.244584
v -0.269652 0.814243 -0.360610
v -0.337840 0.463596 -0.085859
v -0.087335 0.662846 0.022706
v -0.133502 0.865933 -0.243497
v -0.384008 0.666683 -0.352061
v -0.235671 0.664765 -0.164678
v -0.726047 0.956109 0.245732
v -0.557874 0.946584 0.268692
v -0.432057 0.969943 0.156779
v -0.407530 1.008037 -0.007072
v -0.521783 1.039601 -0.128932
v -0.689956 1.049125 -0.151892
v -0.815772 1.025767 -0.039979
v -0.840300 0.987673 0.123872
v -0.796621 1.529620 0.214972
v -0.855642 1.373210 0.285698
v -0.700499 1.364424 0.306879
v -0.584431 1.385972 0.203637
v -0.561804 1.421115 0.052482
v -0.667205 1.450233 -0.059936
v -0.822347 1.459020 -0.081118
v -0.938415 1.437471 0.022124
v -0.961043 1.402328 0.173280
v -0.733296 1.526033 0.223618
v -0.685921 1.534829 0.181478
v -0.676685 1.549173 0.119781
v -0.719706 1.561058 0.073895
v -0.783031 1.564644 0.065250
v -0.830406 1.555849 0.107390
v -0.839642 1.541505 0.169087
v -0.758164 1.545339 0.144434
v -0.134086 2.175410 -0.592273
v -0.057858 2.239203 0.570562
v 1.005014 2.133991 -0.608655
v 1.060637 2.207931 0.567401
v 1.155015 2.285858 -0.003931
v 0.465628 2.260216 -0.666781
v 0.543691 2.347408 0.671754
v -0.135949 2.326041 0.004758
v 0.602576 2.696310 0.054765
v 1.134052 2.273456 0.359162
v 0.812179 2.213751 -0.652096
v -0.250028 1.846086 -0.661016
v 0.983678 1.867308 0.537772
v -0.178943 1.902453 0.547395
v 0.936878 1.803701 -0.685663
v 0.179276 2.317001 0.640454
v -0.150854 2.267521 -0.364344
v 1.098441 2.224524 -0.378068
v 0.097927 2.239790 -0.642454
v 0.879220 2.298317 0.639779
v -0.100767 2.308917 0.363776
v 0.338695 1.827416 -0.839546
v -0.364855 1.897285 -0.054574
v 0.600432 2.614637 0.435721
v 0.553363 2.554955 -0.354953
v 0.959710 2.573955 0.038733
v 0.196741 2.596546 0.040845
v 1.135542 1.848208 -0.076681
v 0.414277 1.907801 0.714255
v 0.074993 1.901727 0.690981
v 1.118164 1.851850 0.273728
v 0.174632 2.534656 -0.341797
v 0.909691 2.510016 -0.346552
v 0.950107 2.567633 0.412731
v -0.371972 1.865578 -0.401784
v 0.676055 1.803177 -0.825624
v -0.006086 1.828054 -0.810558
v -0.328703 1.896959 0.289857
v 0.223842 2.587272 0.412936
v 1.092467 1.815273 -0.428912
v 0.739734 1.881819 0.686644
v -0.050234 1.363261 0.505989
v 0.233247 1.354414 0.539351
v -0.272993 1.354630 0.381523
v 0.862786 1.325864 0.126104
v 0.901726 1.312086 -0.173324
v 0.734179 1.326076 0.355065
v -0.427252 1.336807 -0.430853
v -0.456011 1.348953 -0.135478
v -0.312412 1.311800 -0.660446
v 0.494485 1.291445 -0.813614
v 0.198235 1.295146 -0.848450
v 0.720549 1.283004 -0.690493
v -0.092823 1.308235 -0.796249
v -0.402655 1.360874 0.159879
v 0.856455 1.301534 -0.467485
v 0.518363 1.346316 0.491252
v -0.135691 0.804445 0.331088
v 0.113195 0.805919 0.345936
v -0.332196 0.799468 0.229223
v 0.672321 0.789670 -0.013468
v 0.705449 0.778053 -0.260378
v 0.555988 0.797629 0.181757
v -0.466389 0.771137 -0.460296
v -0.493412 0.782204 -0.209069
v -0.352931 0.760755 -0.659958
v 0.354173 0.749331 -0.801992
v 0.097661 0.749244 -0.827933
v 0.553938 0.754154 -0.691331
v -0.157071 0.753353 -0.784923
v -0.453476 0.792496 0.040815
v 0.672560 0.764785 -0.503220
v 0.361942 0.803696 0.302157
v -0.173162 0.147580 0.214092
v 0.049282 0.156414 0.238681
v -0.355515 0.137902 0.123950
v 0.546174 0.150393 -0.101326
v 0.587206 0.138361 -0.303560
v 0.439754 0.158340 0.065479
v -0.486141 0.108348 -0.460377
v -0.528301 0.117303 -0.244697
v -0.375763 0.102044 -0.637592
v 0.242946 0.103588 -0.770468
v 0.021945 0.098354 -0.808267
v 0.421403 0.112740 -0.668215
v -0.198824 0.098164 -0.754848
v -0.474784 0.127374 -0.036575
v 0.536128 0.124586 -0.505622
v 0.267265 0.160146 0.178144
v -0.256171 -0.091921 0.383627
v 0.033417 -0.082719 0.366873
v -0.488239 -0.104753 0.263143
v 0.673815 -0.091850 -0.019119
v 0.679577 -0.103385 -0.287488
v 0.536146 -0.086163 0.192560
v -0.655980 -0.130485 -0.500545
v -0.664914 -0.120653 -0.223607
v -0.511888 -0.141293 -0.726188
v 0.286084 -0.141568 -0.893971
v -0.000281 -0.143119 -0.903902
v 0.510326 -0.136106 -0.757812
v -0.287204 -0.143722 -0.878031
v -0.642766 -0.111199 0.056856
v 0.659017 -0.120407 -0.549015
v 0.318686 -0.079587 0.338591
vn 0.6573 -0.5399 -0.5259
vn -0.1416 -0.1379 0.9803
vn 0.1440 0.2134 -0.9663
vn -0.7348 -0.2872 0.6145
vn 0.7260 0.3560 -0.5884
vn 0.4564 -0.0144 0.8896
vn -0.7797 -0.4209 -0.4636
vn 0.5922 0.5961 0.5423
vn 0.4386 0.8982 -0.0315
vn -0.6525 -0.7201 0.2360
vn 0.1627 0.7899 -0.5913
vn -0.2446 -0.6437 0.7251
vn -0.4855 0.0678 -0.8716
vn -0.0969 0.4402 0.8926
vn 0.1269 0.7879 -0.6026
vn -0.5591 0.5075 0.6557
vn 0.5891 0.7206 -0.3656
vn -0.6539 -0.0813 -0.7522
vn 0.6414 0.1502 0.7524
vn -0.9468 -0.2518 -0.2003
vn 0.9252 0.3150 0.2117
vn 0.0237 0.9730 0.2298
vn -0.5064 0.7581 -0.4110
vn 0.5363 0.4700 0.7010
vn -0.7524 0.6575 0.0402
vn 0.7823 0.5706 0.2498
vn -0.5332 0.6671 0.5202
vn 0.1492 0.6255 0.7658
vn 0.2171 0.9382 -0.2694
vn -0.6249 0.7751 -0.0934
vn -0.0834 0.1303 0.9880
vn -0.4143 0.1568 0.8965
vn 0.9973 -0.0508 0.0530
vn 0.9086 -0.1684 0.3821
vn -0.1469 0.9612 -0.2333
vn -0.0739 0.7283 -0.6812
vn -0.4637 0.7391 -0.4885
vn 0.8008 0.5627 -0.2052
vn 0.5595 0.5647 -0.6067
vn 0.1142 0.7003 -0.7047
vn 0.6786 0.4561 0.5758
vn 0.8406 0.5395 0.0486
vn 0.2375 0.9644 0.1161
vn -0.8771 0.4791 -0.0334
vn -0.8354 0.4340 -0.3373
vn 0.0760 0.3584 -0.9305
vn 0.3966 0.1941 -0.8972
vn -0.3889 0.3832 -0.8378
vn -0.0795 0.3917 -0.9167
vn -0.8494 0.3441 0.4001
vn -0.8808 0.4626 0.1008
vn -0.1058 0.6608 0.7431
vn -0.1648 0.9785 0.1236
vn -0.6450 0.7597 0.0824
vn 0.8914 -0.0110 -0.4532
vn 0.9908 -0.0101 -0.1346
vn 0.4384 -0.1050 0.8926
vn 0.0978 0.0729 0.9925
vn 0.4648 -0.1852 -0.8658
vn -0.9916 0.0765 -0.1044
vn 0.4415 -0.4630 0.7686
vn -0.0880 -0.2895 0.9531
vn 0.0958 -0.3520 0.9311
vn -0.4798 -0.1805 0.8586
vn -0.5211 0.0617 -0.8512
vn -0.1262 0.0221 -0.9918
vn 0.8967 -0.4335 0.0893
vn -0.9894 0.1389 -0.0428
vn 0.7619 -0.4911 0.4222
vn -0.8905 0.1104 -0.4414
vn 0.8141 -0.3361 -0.4736
vn -0.8639 -0.0036 0.5037
vn 0.9130 -0.3959 -0.0981
vn -0.9831 0.1234 0.1353
vn 0.0755 -0.0263 -0.9968
vn -0.1989 -0.0194 -0.9798
vn 0.8299 -0.2560 -0.4957
vn -0.8778 0.0749 -0.4731
vn 0.9396 -0.3195 -0.1226
vn 0.1088 -0.0534 -0.9926
vn 0.4647 -0.4106 0.7845
vn 0.4752 -0.1449 -0.8678
vn -0.0902 -0.2992 0.9499
vn 0.1514 -0.3610 0.9202
vn -0.5304 0.0412 -0.8467
vn -0.4611 -0.1944 0.8658
vn -0.1719 -0.0028 -0.9851
vn 0.9217 -0.3624 0.1384
vn -0.8521 -0.0425 0.5216
vn 0.7871 -0.4084 0.4623
vn -0.9849 0.0483 0.1665
vn 0.4690 0.5524 0.6891
vn 0.9646 -0.2017 0.1699
vn -0.8211 -0.0507 0.5686
vn 0.8224 -0.2384 0.5165
vn -0.9797 0.0245 0.1988
vn -0.9879 0.0446 -0.1483
vn 0.8240 -0.1816 -0.5366
vn -0.8593 0.0191 -0.5112
vn 0.9674 -0.1864 -0.1713
vn 0.1327 -0.0582 -0.9894
vn 0.5174 -0.2390 0.8217
vn 0.4900 -0.1294 -0.8620
vn -0.0787 -0.1627 0.9835
vn 0.2144 -0.1974 0.9566
vn -0.5450 -0.0067 -0.8384
vn -0.4443 -0.1290 0.8865
vn 0.0139 -0.9989 0.0453
vn 0.4421 0.4523 -0.7745
vn -0.0317 0.5326 0.8458
vn 0.1417 0.5187 0.8431
vn -0.4676 0.5263 -0.7102
vn -0.3840 0.6136 0.6900
vn -0.1396 0.4347 -0.8897
vn 0.9029 0.4244 0.0685
vn -0.6425 0.6195 0.4509
vn 0.7235 0.5255 0.4477
vn -0.8261 0.5535 0.1058
vn -0.8344 0.5406 -0.1072
vn 0.7121 0.4505 -0.5385
vn -0.6894 0.5601 -0.4593
vn 0.8984 0.4066 -0.1658
vn 0.0799 0.4121 -0.9076
vt 0.780380 0.834334
vt 0.687059 0.610070
vt 0.800151 0.766792
vt 0.802194 0.613456
vt 0.725253 0.802307
vt 0.580708 0.839587
vt 0.274481 0.748434
vt 0.745024 0.734765
vt 0.875751 0.629479
vt 0.645001 0.810321
vt 0.749271 0.830432
vt 0.238216 0.738227
vt 0.660531 0.607069
vt 0.800151 0.806306
vt 0.725253 0.621901
vt 0.784471 0.634422
vt 0.776133 0.738667
vt 0.840598 0.612918
vt 0.725253 0.762793
vt 0.607006 0.822777
vt 0.762702 0.784549
vt 0.783830 0.607069
vt 0.239047 0.626896
vt 0.645001 0.757223
vt 0.672169 0.739248
vt 0.791944 0.704153
vt 0.699937 0.721018
vt 0.800151 0.734765
vt 0.821267 0.683218
vt 0.835402 0.739181
vt 0.622871 0.731213
vt 0.864201 0.739399
vt 0.855521 0.692852
vt 0.875751 0.722562
vt 0.594826 0.711556
vt 0.567600 0.696040
vt 0.725253 0.628048
vt 0.555424 0.692124
vt 0.274481 0.626807
vt 0.749245 0.617683
vt 0.704567 0.858932
vt 0.782851 0.730768
vt 0.725253 0.875468
vt 0.673051 0.844419
vt 0.783830 0.697327
vt 0.698114 0.827837
vt 0.723730 0.811020
vt 0.805114 0.819271
vt 0.765545 0.834334
vt 0.837633 0.823345
vt 0.645001 0.639517
vt 0.864201 0.823546
vt 0.786099 0.859928
vt 0.619128 0.621383
vt 0.785363 0.893078
vt 0.594012 0.607069
vt 0.729792 0.716680
vt 0.759234 0.914146
vt 0.751924 0.707119
vt 0.725997 0.914146
vt 0.725554 0.861937
vt 0.714797 0.852164
vt 0.736219 0.853337
vt 0.725253 0.845300
vt 0.815995 0.847159
vt 0.749785 0.853338
vt 0.829268 0.848822
vt 0.758175 0.863784
vt 0.757874 0.877315
vt 0.747209 0.885915
vt 0.769828 0.734765
vt 0.733643 0.885915
vt 0.741714 0.869626
vt 0.234074 0.635101
vt 0.044381 0.124406
vt 0.230815 0.883193
vt 0.587242 0.020503
vt 0.279364 0.078369
vt 0.293506 0.110747
vt 0.542119 0.069798
vt 0.972667 0.550481
vt 0.421117 0.062272
vt 0.166681 0.079248
vt 0.101740 0.911773
vt 0.857731 0.552230
vt 0.695560 0.014393
vt 0.238216 0.760338
vt 0.073007 0.776453
vt 1.000000 0.561922
vt 0.497932 0.058131
vt 0.238681 0.071910
vt 0.038225 0.199675
vt 0.974917 0.475683
vt 0.542119 0.144492
vt 0.598992 0.093921
vt 0.283403 0.151686
vt 0.283403 0.183972
vt 0.790383 0.524102
vt 0.546849 0.000000
vt 0.179446 0.900388
vt 0.238216 0.682228
vt 0.759008 0.034532
vt 0.025997 0.101851
vt 0.283403 0.050777
vt 0.342129 0.084366
vt 0.182625 0.626807
vt 0.091366 0.100775
vt 0.031324 0.910320
vt 0.927777 0.560605
vt 0.629525 0.010341
vt 0.235640 0.837587
vt 0.167758 0.178470
vt 0.725137 0.109274
vt 0.080209 0.858711
vt 0.081813 0.690303
vt 0.156845 0.008009
vt 0.419749 0.005962
vt 0.000000 0.779673
vt 0.161421 0.769112
vt 0.415323 0.156743
vt 0.848602 0.456349
vt 0.784471 0.434871
vt 0.542119 0.088446
vt 0.489153 0.149369
vt 0.079812 0.030249
vt 0.162864 0.688059
vt 0.007385 0.697693
vt 0.338586 0.028649
vt 0.231076 0.000000
vt 0.947080 0.612918
vt 0.498958 0.000000
vt 0.006851 0.859344
vt 0.784471 0.123178
vt 0.000000 0.196695
vt 0.236962 0.166974
vt 0.095987 0.194430
vt 0.661844 0.101935
vt 0.160531 0.848930
vt 0.340592 0.172019
vt 0.915332 0.468987
vt 0.797880 0.312340
vt 0.577384 0.208133
vt 0.851013 0.327857
vt 0.626810 0.214877
vt 0.464892 0.270558
vt 0.402519 0.278444
vt 0.964035 0.345494
vt 0.510888 0.269449
vt 0.784471 0.236878
vt 0.012898 0.309726
vt 0.738100 0.228575
vt 0.048481 0.313644
vt 0.221377 0.281795
vt 0.162455 0.295963
vt 0.290045 0.300073
vt 0.261925 0.270358
vt 0.099989 0.306314
vt 0.681250 0.219448
vt 0.339539 0.287879
vt 0.910652 0.341213
vt 0.819171 0.188247
vt 0.605394 0.331521
vt 0.866516 0.203329
vt 0.647703 0.336748
vt 0.443842 0.391941
vt 0.392435 0.398470
vt 0.482752 0.389538
vt 0.965780 0.222300
vt 0.781637 0.358265
vt 0.030696 0.429650
vt 0.742540 0.351074
vt 0.063924 0.430040
vt 0.215538 0.400943
vt 0.164457 0.413816
vt 0.298693 0.416437
vt 0.250749 0.388251
vt 0.110232 0.424451
vt 0.695112 0.343364
vt 0.340635 0.407096
vt 0.918473 0.215915
vt 0.849718 0.048630
vt 0.615191 0.474082
vt 0.890838 0.063977
vt 0.653592 0.479919
vt 0.437366 0.532271
vt 0.395590 0.537765
vt 0.980136 0.081751
vt 0.470448 0.530170
vt 0.769124 0.499514
vt 0.584244 0.604025
vt 0.055217 0.568264
vt 0.737966 0.493659
vt 0.581381 0.557432
vt 0.086557 0.567540
vt 0.219136 0.539843
vt 0.176094 0.552292
vt 0.250219 0.527436
vt 0.315657 0.555152
vt 0.128482 0.561988
vt 0.695914 0.486702
vt 0.352087 0.546179
vt 0.937812 0.075510
vt 0.284787 0.684067
vt 0.831129 0.000000
vt 0.591465 0.522472
vt 0.283403 0.746154
vt 0.888485 0.018069
vt 0.314493 0.636564
vt 0.641305 0.530128
vt 0.355008 0.889294
vt 0.462823 0.578246
vt 0.412226 0.895038
vt 0.406330 0.585950
vt 1.000000 0.041184
vt 0.312146 0.856354
vt 0.504853 0.576581
vt 0.480340 0.613638
vt 0.542119 0.604025
vt 0.032789 0.626807
vt 0.421365 0.607069
vt 0.746400 0.545317
vt 0.547953 0.545317
vt 0.526121 0.648174
vt 0.073538 0.626291
vt 0.548481 0.821260
vt 0.244454 0.590974
vt 0.555424 0.760328
vt 0.186573 0.605293
vt 0.515639 0.866811
vt 0.283402 0.576495
vt 0.304100 0.607069
vt 0.554735 0.698674
vt 0.126810 0.618778
vt 0.361121 0.607071
vt 0.696013 0.537350
vt 0.468483 0.895038
vt 0.350898 0.595406
vt 0.284609 0.807503
vt 0.946147 0.034311
s 0
usemtl cactus2
f 9/21/1 8/19/1 4/8/1 7/17/1
f 5/11/1 3/5/1 8/19/1 9/21/1
f 1/1/1 5/11/1 9/21/1 6/14/1
f 6/14/1 9/21/1 7/17/1 2/3/1
f 10/24/2 11/25/2 20/46/2 19/44/2
f 14/31/3 15/35/3 24/54/3 23/51/3
f 17/40/4 10/22/4 19/45/4 26/59/4
f 13/30/5 14/32/5 23/52/5 22/50/5
f 1/2/6 6/15/6 12/27/6 11/25/6
f 8/20/7 3/6/7 17/38/7 16/36/7
f 6/16/8 2/4/8 13/29/8 12/26/8
f 2/4/9 7/18/9 14/33/9 13/29/9
f 3/7/10 5/12/10 10/23/10 17/39/10
f 7/18/11 4/9/11 15/34/11 14/33/11
f 5/13/12 1/2/12 11/25/12 10/24/12
f 4/10/13 8/20/13 16/36/13 15/35/13
f 19/44/14 20/46/14 27/62/14 18/41/14
f 23/53/15 24/55/15 31/69/15 30/68/15
f 26/59/16 19/45/16 18/42/16 33/71/16
f 22/49/17 23/53/17 30/68/17 29/66/17
f 15/35/18 16/36/18 25/56/18 24/54/18
f 11/25/19 12/27/19 21/47/19 20/46/19
f 16/37/20 17/40/20 26/59/20 25/57/20
f 12/28/21 13/30/21 22/50/21 21/48/21
f 34/73/22 30/68/22 31/69/22 32/70/22
f 18/43/22 34/73/22 32/70/22 33/72/22
f 27/61/22 28/63/22 34/73/22 18/43/22
f 28/63/22 29/66/22 30/68/22 34/73/22
f 24/55/23 25/58/23 32/70/23 31/69/23
f 20/46/24 21/47/24 28/64/24 27/62/24
f 25/58/25 26/60/25 33/72/25 32/70/25
f 21/48/26 22/50/26 29/67/26 28/65/26
f 73/138/27 55/111/27 36/76/27 50/100/27
f 68/132/28 58/114/28 41/84/28 54/108/28
f 67/127/29 59/115/29 43/88/29 60/118/29
f 66/126/30 51/101/30 42/87/30 61/119/30
f 50/98/31 64/122/31 63/121/31 41/85/31
f 36/77/32 48/95/32 64/123/32 50/99/32
f 44/90/33 65/124/33 62/120/33 39/82/33
f 38/80/34 47/94/34 65/124/34 44/90/34
f 59/115/35 66/126/35 61/119/35 43/88/35
f 40/83/36 53/107/36 66/125/36 59/116/36
f 53/106/37 35/74/37 51/101/37 66/126/37
f 52/105/38 67/128/38 60/117/38 39/82/38
f 37/78/39 45/91/39 67/129/39 52/104/39
f 45/91/40 40/83/40 59/116/40 67/129/40
f 44/89/41 68/130/41 54/109/41 38/81/41
f 39/82/42 60/117/42 68/131/42 44/90/42
f 60/118/43 43/88/43 58/114/43 68/132/43
f 51/102/44 69/133/44 57/113/44 42/86/44
f 35/75/45 46/92/45 69/134/45 51/103/45
f 45/91/46 70/135/46 56/112/46 40/83/46
f 37/78/47 49/96/47 70/135/47 45/91/47
f 53/107/48 71/136/48 46/92/48 35/75/48
f 40/83/49 56/112/49 71/136/49 53/107/49
f 55/110/50 72/137/50 48/95/50 36/77/50
f 42/86/51 57/113/51 72/137/51 55/110/51
f 58/114/52 73/138/52 50/100/52 41/84/52
f 43/88/53 61/119/53 73/138/53 58/114/53
f 61/119/54 42/87/54 55/111/54 73/138/54
f 52/105/55 74/139/55 49/97/55 37/79/55
f 39/82/56 62/120/56 74/139/56 52/105/56
f 54/109/57 75/140/57 47/93/57 38/81/57
f 41/85/58 63/121/58 75/140/58 54/109/58
f 70/135/59 49/96/59 87/156/59 85/153/59
f 83/151/60 82/149/60 98/169/60 99/171/60
f 47/93/61 75/140/61 91/160/61 81/147/61
f 63/121/62 64/122/62 76/141/62 77/143/62
f 75/140/63 63/121/63 77/143/63 91/160/63
f 64/123/64 48/95/64 78/144/64 76/142/64
f 46/92/65 71/136/65 88/157/65 84/152/65
f 71/136/66 56/112/66 86/154/66 88/157/66
f 62/120/67 65/124/67 79/145/67 80/146/67
f 57/113/68 69/133/68 82/149/68 83/151/68
f 65/124/69 47/94/69 81/148/69 79/145/69
f 69/134/70 46/92/70 84/152/70 82/150/70
f 49/97/71 74/139/71 90/159/71 87/155/71
f 48/95/72 72/137/72 89/158/72 78/144/72
f 74/139/73 62/120/73 80/146/73 90/159/73
f 72/137/74 57/113/74 83/151/74 89/158/74
f 56/112/75 70/135/75 85/153/75 86/154/75
f 104/177/76 102/174/76 118/196/76 120/199/76
f 87/155/77 90/159/77 106/179/77 103/175/77
f 82/150/78 84/152/78 100/172/78 98/170/78
f 90/159/79 80/146/79 96/166/79 106/179/79
f 86/154/80 85/153/80 101/173/80 102/174/80
f 81/147/81 91/160/81 107/180/81 97/168/81
f 85/153/82 87/156/82 103/176/82 101/173/82
f 77/143/83 76/141/83 92/161/83 93/163/83
f 91/160/84 77/143/84 93/163/84 107/180/84
f 84/152/85 88/157/85 104/177/85 100/172/85
f 76/142/86 78/144/86 94/164/86 92/162/86
f 88/157/87 86/154/87 102/174/87 104/177/87
f 80/146/88 79/145/88 95/165/88 96/166/88
f 78/144/89 89/158/89 105/178/89 94/164/89
f 79/145/90 81/148/90 97/167/90 95/165/90
f 89/158/91 83/151/91 99/171/91 105/178/91
f 113/187/92 123/202/92 139/239/92 129/214/92
f 96/166/93 95/165/93 111/185/93 112/186/93
f 94/164/94 105/178/94 121/200/94 110/184/94
f 95/165/95 97/167/95 113/188/95 111/185/95
f 105/178/96 99/171/96 115/192/96 121/200/96
f 99/171/97 98/169/97 114/189/97 115/192/97
f 103/175/98 106/179/98 122/201/98 119/198/98
f 98/170/99 100/172/99 116/194/99 114/191/99
f 106/179/100 96/166/100 112/186/100 122/201/100
f 102/174/101 101/173/101 117/195/101 118/196/101
f 97/168/102 107/180/102 123/202/102 113/187/102
f 101/173/103 103/176/103 119/197/103 117/195/103
f 93/163/104 92/161/104 108/181/104 109/183/104
f 107/180/105 93/163/105 109/183/105 123/202/105
f 100/172/106 104/177/106 120/199/106 116/194/106
f 92/162/107 94/164/107 110/184/107 108/182/107
f 127/210/108 129/215/108 139/238/108 125/206/108 124/203/108 126/208/108 137/234/108 131/220/108 130/217/108 132/223/108 136/232/108 134/227/108 133/225/108 135/229/108 138/236/108 128/212/108
f 117/195/109 119/197/109 135/230/109 133/226/109
f 109/183/110 108/181/110 124/204/110 125/207/110
f 123/202/111 109/183/111 125/207/111 139/239/111
f 116/194/112 120/199/112 136/233/112 132/224/112
f 108/182/113 110/184/113 126/209/113 124/205/113
f 120/199/114 118/196/114 134/228/114 136/233/114
f 112/186/115 111/185/115 127/211/115 128/213/115
f 110/184/116 121/200/116 137/235/116 126/209/116
f 111/185/117 113/188/117 129/216/117 127/211/117
f 121/200/118 115/192/118 131/221/118 137/235/118
f 115/193/119 114/190/119 130/218/119 131/222/119
f 119/198/120 122/201/120 138/237/120 135/231/120
f 114/191/121 116/194/121 132/224/121 130/219/121
f 122/201/122 112/186/122 128/213/122 138/237/122
f 118/196/123 117/195/123 133/226/123 134/228/123
