# Blender 3.4.1
# www.blender.org
mtllib rock_structures_2.mtl
o Plane.002
v -2.441863 -0.049775 1.889238
v 0.733726 -0.049775 1.889238
v -2.441863 -0.049775 -1.774659
v 0.733726 -0.049775 -1.774659
v -3.074880 -0.049775 0.057290
v -0.854069 -0.049775 2.231827
v 1.030656 -0.049775 0.057290
v -0.854069 -0.049775 -2.117247
v -0.854069 -0.049775 0.057290
v -2.690665 3.085738 0.057290
v -2.096878 3.085738 1.647202
v -0.718862 3.085738 1.944528
v 0.659154 3.085738 1.647202
v 0.659154 3.085738 -1.532622
v -0.718862 3.085738 -1.829948
v -2.096878 3.085738 -1.532622
v 3.245872 -0.034048 0.057290
v 2.254662 -0.034048 -1.382814
v 2.254662 -0.034048 1.497394
v 2.698014 2.430795 0.057290
v 2.162300 2.430795 -1.192548
v 2.162300 2.430795 1.307128
v -1.348398 5.529658 0.057290
v -1.153911 5.529658 1.257202
v -0.113918 5.529658 1.481595
v 0.926075 5.529658 1.257202
v 0.926075 5.529658 -1.142622
v -0.113918 5.529658 -1.367015
v -1.153911 5.529658 -1.142622
v 2.060505 5.035369 -0.885967
v 2.464811 5.035369 0.057290
v 2.060505 5.035369 1.000547
v -2.169617 7.795458 0.057289
v -1.535278 7.795458 1.897398
v 0.059590 7.795458 2.241513
v 1.654457 7.795458 1.897398
v 1.654457 7.795458 -1.782819
v 0.059590 7.795458 -2.126934
v -1.535278 7.795458 -1.782819
v 3.394146 7.795458 -1.389229
v 4.014163 7.795458 0.057289
v 3.394146 7.795458 1.503808
v -2.169617 9.820765 0.057289
v -1.535278 9.820765 1.897398
v 0.059590 9.820765 2.241513
v 1.654457 9.820765 1.897398
v 1.065772 10.614561 0.057290
v 1.654457 9.820765 -1.782819
v 0.059590 9.820765 -2.126934
v -1.535278 9.820765 -1.782819
v -0.333886 10.614561 0.057290
v 3.394146 9.820765 -1.389229
v 4.014163 9.820765 0.057289
v 3.394146 9.820765 1.503808
vn -0.0000 -1.0000 -0.0000
vn -0.2052 0.2310 0.9511
vn 0.9160 0.0820 -0.3926
vn 0.2091 0.1318 0.9690
vn -0.8704 0.4266 -0.2459
vn 0.0088 -1.0000 0.0035
vn -0.9343 0.1216 -0.3350
vn 0.2508 0.0819 -0.9646
vn -0.9343 0.1216 0.3350
vn 0.2102 0.0802 -0.9744
vn -0.2099 0.0982 0.9728
vn -0.2099 0.0982 -0.9728
vn 0.2102 0.0802 0.9744
vn 0.8622 0.1309 0.4894
vn 0.8622 0.1309 -0.4894
vn 0.0088 -1.0000 -0.0035
vn 0.2091 0.1318 -0.9690
vn 0.2508 0.0819 0.9646
vn -0.8704 0.4266 0.2459
vn 0.8168 -0.4585 -0.3501
vn 0.1651 -0.2827 -0.9449
vn -0.2014 -0.2976 0.9332
vn 0.1651 -0.2827 0.9449
vn 0.1994 -0.3253 0.9243
vn -0.9258 -0.2813 -0.2524
vn 0.2697 0.1230 -0.9551
vn 0.9160 0.0820 0.3926
vn 0.2697 0.1230 0.9551
vn -0.2052 0.2310 -0.9511
vn -0.2109 -0.0000 -0.9775
vn 0.9191 -0.0000 -0.3940
vn 0.2207 -0.0000 -0.9753
vn -0.2109 -0.0000 0.9775
vn 0.2207 -0.0000 0.9753
vn 0.2109 -0.0000 0.9775
vn -0.2014 -0.2976 -0.9332
vn -0.9258 -0.2813 0.2524
vn 0.1994 -0.3253 -0.9243
vn 0.8168 -0.4585 0.3501
vn 0.0411 0.9328 -0.3580
vn -0.2419 0.9384 -0.2469
vn -0.2419 0.9384 0.2469
vn 0.0411 0.9328 0.3580
vn 0.1813 0.9555 0.2325
vn 0.1813 0.9555 -0.2325
vn -0.9454 -0.0000 0.3259
vn 0.2109 -0.0000 -0.9775
vn 0.9191 -0.0000 0.3940
vn -0.9454 -0.0000 -0.3259
vt 0.177322 0.981234
vt 0.623064 0.646750
vt 0.000000 0.000000
vt 0.210482 0.803913
vt 0.179972 0.001387
vt 0.000000 0.948073
vt 0.792651 0.647546
vt 0.618794 0.000000
vt 0.439396 0.014426
vt 0.033161 0.770752
vt 0.082051 1.000000
vt 0.720081 0.649514
vt 0.210482 0.895674
vt 0.088837 0.000874
vt 0.124922 0.770752
vt 0.000000 0.856312
vt 0.530254 0.007310
vt 0.105241 0.875993
vt 0.718103 0.443706
vt 0.018941 0.204824
vt 0.633047 0.441141
vt 0.096041 0.205582
vt 0.175135 0.206028
vt 0.459050 0.218178
vt 0.537905 0.212002
vt 0.780228 0.441832
vt 0.614747 0.205658
vt 0.328482 0.002547
vt 0.833847 0.005389
vt 0.148055 0.647054
vt 0.352230 0.022249
vt 0.922749 0.000000
vt 0.068007 0.689368
vt 0.207401 0.715436
vt 0.267476 0.002873
vt 0.296315 0.163303
vt 0.856455 0.163648
vt 0.924993 0.160327
vt 0.369586 0.182266
vt 0.816367 0.162494
vt 0.261762 0.163727
vt 0.696425 0.279394
vt 0.072582 0.364658
vt 0.637131 0.278407
vt 0.130769 0.365231
vt 0.190462 0.365567
vt 0.455326 0.378408
vt 0.514837 0.373747
vt 0.748209 0.278928
vt 0.572830 0.368959
vt 0.922890 0.329816
vt 0.387807 0.351306
vt 0.871164 0.332323
vt 0.255840 0.333642
vt 0.840910 0.331452
vt 0.716214 0.134779
vt 0.047794 0.512822
vt 0.618795 0.132010
vt 0.137026 0.513700
vt 0.228567 0.514216
vt 0.428094 0.529428
vt 0.519357 0.522280
vt 0.608291 0.514938
vt 0.789137 0.132808
vt 0.918371 0.514729
vt 0.328482 0.537220
vt 0.839047 0.518573
vt 0.328482 0.514769
vt 0.792651 0.517237
vt 0.869527 0.996564
vt 0.719729 0.002770
vt 0.046875 0.645108
vt 0.792651 0.946371
vt 0.622309 0.000000
vt 0.136108 0.645986
vt 0.792651 0.854367
vt 0.227649 0.646502
vt 0.823714 0.767859
vt 0.919749 0.818402
vt 0.989821 0.797245
vt 0.438597 0.661299
vt 0.989821 0.889249
vt 0.529860 0.654151
vt 0.618794 0.646809
vt 0.958758 0.975757
vt 0.792651 0.000798
vt 0.906119 0.896733
vt 0.924993 0.646648
vt 0.338985 0.669092
vt 0.988998 0.696741
vt 0.929747 0.650492
vt 0.845669 0.650492
vt 0.327563 0.647054
vt 0.858421 0.673640
vt 0.799273 0.649156
s 0
f 9/18/1 8/16/1 4/10/1 7/15/1
f 5/11/1 3/6/1 8/16/1 9/18/1
f 1/1/1 5/11/1 9/18/1 6/13/1
f 6/13/1 9/18/1 7/15/1 2/4/1
f 11/20/2 12/22/2 25/45/2 24/43/2
f 20/37/3 21/38/3 30/51/3 31/53/3
f 12/22/4 13/23/4 26/46/4 25/45/4
f 16/26/5 10/19/5 23/42/5 29/49/5
f 2/4/6 7/15/6 17/30/6 19/34/6
f 3/7/7 5/12/7 10/19/7 16/26/7
f 4/9/8 14/24/8 21/39/8 18/31/8
f 5/12/9 1/2/9 11/21/9 10/19/9
f 4/9/10 8/17/10 15/25/10 14/24/10
f 1/3/11 6/14/11 12/22/11 11/20/11
f 8/17/12 3/8/12 16/27/12 15/25/12
f 6/14/13 2/5/13 13/23/13 12/22/13
f 19/35/14 17/28/14 20/36/14 22/41/14
f 17/29/15 18/32/15 21/38/15 20/37/15
f 7/15/16 4/10/16 18/33/16 17/30/16
f 14/24/17 15/25/17 28/48/17 27/47/17
f 13/23/18 2/5/18 19/35/18 22/41/18
f 10/19/19 11/21/19 24/44/19 23/42/19
f 31/53/20 30/51/20 40/65/20 41/67/20
f 30/52/21 27/47/21 37/61/21 40/66/21
f 24/43/22 25/45/22 35/59/22 34/57/22
f 26/46/23 32/54/23 42/68/23 36/60/23
f 25/45/24 26/46/24 36/60/24 35/59/24
f 29/49/25 23/42/25 33/56/25 39/64/25
f 21/39/26 14/24/26 27/47/26 30/52/26
f 22/40/27 20/37/27 31/53/27 32/55/27
f 13/23/28 22/41/28 32/54/28 26/46/28
f 15/25/29 16/27/29 29/50/29 28/48/29
f 38/62/30 39/63/30 50/84/30 49/83/30
f 41/67/31 40/65/31 52/88/31 53/92/31
f 40/66/32 37/61/32 48/81/32 52/89/32
f 34/57/33 35/59/33 45/75/33 44/72/33
f 36/60/34 42/68/34 54/93/34 46/77/34
f 35/59/35 36/60/35 46/77/35 45/75/35
f 28/48/36 29/50/36 39/63/36 38/62/36
f 23/42/37 24/44/37 34/58/37 33/56/37
f 27/47/38 28/48/38 38/62/38 37/61/38
f 32/55/39 31/53/39 41/67/39 42/69/39
f 51/87/40 47/79/40 48/80/40 49/82/40
f 43/70/41 51/87/41 49/82/41 50/85/41
f 44/73/42 45/76/42 51/87/42 43/70/42
f 45/76/43 46/78/43 47/79/43 51/87/43
f 47/79/44 46/78/44 54/94/44 53/91/44
f 48/80/45 47/79/45 53/91/45 52/90/45
f 33/56/46 34/58/46 44/74/46 43/71/46
f 37/61/47 38/62/47 49/83/47 48/81/47
f 42/69/48 41/67/48 53/92/48 54/95/48
f 39/64/49 33/56/49 43/71/49 50/86/49
