# Blender 3.4.0
# www.blender.org
mtllib untitled.mtl
o Cube
v 0.824800 0.394651 -0.645949
v 1.301191 -0.437636 -1.198438
v 0.781349 0.378390 0.664753
v 1.308570 -0.434875 1.258256
v -0.958312 0.289875 -0.664777
v -1.158197 -0.404196 -1.184500
v -0.990101 0.341806 0.855013
v -1.150121 -0.420146 1.200420
v -1.682389 0.336341 -0.504320
v -1.906076 -0.382653 -0.930628
v -1.640397 0.367200 0.585217
v -1.960938 -0.277250 0.745523
v -0.933442 0.464755 0.059108
v -2.320857 -0.479648 0.166384
v -1.910250 0.325417 0.011824
v -0.814988 -0.315906 -0.184162
v 1.000000 0.322406 -0.074844
v 1.606202 -0.490042 -0.267332
vn 0.0076 0.9968 -0.0802
vn 0.0241 0.5160 0.8563
vn 0.0624 -0.9980 -0.0020
vn -0.0400 -0.9992 -0.0021
vn 0.7752 0.5999 -0.1980
vn -0.0087 0.5737 -0.8190
vn -0.8081 0.4814 0.3396
vn -0.0836 0.9939 0.0719
vn -0.1945 0.5853 -0.7871
vn -0.3632 0.4227 0.8303
vn 0.0067 -0.9987 0.0498
vn -0.8556 0.4120 -0.3133
vn -0.0633 0.9880 -0.1410
vn 0.0328 0.9982 0.0494
vn 0.7929 0.5902 0.1517
vt 0.707791 0.815179
vt 0.935981 0.379346
vt 0.327897 0.518654
vt 0.000000 0.042706
vt 1.000000 0.027072
vt 0.677654 0.441249
vt 0.327897 0.360730
vt 0.880349 0.790177
vt 0.761034 0.379346
vt 0.671968 0.441249
vt 0.327897 0.034723
vt 0.671968 0.037642
vt 0.380857 0.754004
vt 0.677654 0.576046
vt 0.009943 0.370681
vt 0.677654 0.767563
vt 0.352513 0.132971
vt 0.880349 0.551607
vt 0.671968 0.117266
vt 0.327897 0.363046
vt 0.361443 0.852983
vt 0.203148 0.562618
vt 0.690658 0.479159
vt 0.046502 0.469563
vt 0.665677 0.871166
vt 0.203148 0.867479
vt 0.072639 0.523078
vt 0.836635 0.470035
vt 0.337865 0.040925
vt 0.000000 0.784492
vt 0.605567 0.000000
vt 0.272403 0.470800
vt 0.779743 0.574135
vt 0.192286 0.523078
vt 0.042334 0.884878
vt 0.127932 0.557083
vt 0.755605 0.441249
vt 0.144116 0.320890
vt 0.783438 0.828092
vt 0.858242 0.346975
vt 0.122328 0.000000
vt 0.873754 0.000000
s 0
usemtl Material
f 1/1/1 5/14/1 13/33/1 17/39/1
f 4/10/2 3/7/2 7/17/2 8/19/2
f 6/15/3 16/38/3 14/34/3 10/24/3
f 6/15/4 2/4/4 18/41/4 4/11/4 8/20/4 16/38/4
f 2/5/5 1/2/5 17/40/5 18/42/5
f 6/16/6 5/13/6 1/3/6 2/6/6
f 12/30/7 11/27/7 15/36/7 14/35/7
f 7/18/8 13/33/8 15/37/8 11/28/8
f 5/13/9 6/16/9 10/25/9 9/21/9
f 8/19/10 7/17/10 11/29/10 12/31/10
f 14/34/11 16/38/11 8/20/11 12/32/11
f 14/35/12 15/36/12 9/22/12 10/26/12
f 15/37/13 13/33/13 5/14/13 9/23/13
f 17/39/14 13/33/14 7/18/14 3/8/14
f 18/42/15 17/40/15 3/9/15 4/12/15
